<svg xmlns="http://www.w3.org/2000/svg" width="24" height="20" fill="none"><path fill="#E10E0E" d="M22.688 14.488 14.663 1.575A3.29 3.29 0 0 0 12 .225c-1.088 0-2.062.488-2.662 1.35L1.313 14.488a3.28 3.28 0 0 0-.3 3.45 3.29 3.29 0 0 0 2.962 1.837h16.05c1.275 0 2.4-.712 2.963-1.837.562-1.088.45-2.438-.3-3.45m-1.2 2.7c-.3.562-.825.9-1.463.9H3.975c-.637 0-1.162-.338-1.462-.9-.263-.563-.225-1.2.15-1.688l8.025-12.912c.3-.413.787-.675 1.312-.675s1.012.225 1.313.675L21.337 15.5c.375.488.413 1.125.15 1.688"/><path fill="#E10E0E" d="M12 7.2a.87.87 0 0 0-.862.863v4.087c0 .45.375.863.862.863a.85.85 0 0 0 .863-.863V8.025c0-.45-.413-.825-.863-.825M12 14a.87.87 0 0 0-.862.863v.187c0 .45.375.862.862.862a.85.85 0 0 0 .863-.862v-.225c0-.45-.413-.825-.863-.825"/></svg>