<svg xmlns="http://www.w3.org/2000/svg" width="20" height="20" fill="none"><g fill="#4C4C4C" clip-path="url(#a)"><path d="M13.188 9.281h-2.5V6.812a.7.7 0 0 0-.72-.687.7.7 0 0 0-.687.719v2.468H6.812a.7.7 0 0 0-.687.72.7.7 0 0 0 .719.687h2.468v2.469a.7.7 0 0 0 .72.687.7.7 0 0 0 .687-.719v-2.469h2.469a.7.7 0 0 0 .687-.718.694.694 0 0 0-.687-.688"/><path d="M10 .563A9.43 9.43 0 0 0 .563 10c0 5.219 4.25 9.469 9.468 9.469 5.219 0 9.469-4.25 9.469-9.469C19.469 4.781 15.219.563 10 .563m0 17.5c-4.437 0-8.031-3.625-8.031-8.063A8.03 8.03 0 0 1 10 1.969c4.438 0 8.063 3.593 8.063 8.031S14.438 18.063 10 18.063"/></g><defs><clipPath id="a"><path fill="#fff" d="M0 0h20v20H0z"/></clipPath></defs></svg>