<svg width="40" height="41" fill="none" xmlns="http://www.w3.org/2000/svg"><path d="m37.75 5.313-.188-.188a13.468 13.468 0 0 0-18.25 0l-.187.188c-.313.25-.438.625-.438 1.062v10.188H5.376c-2 0-3.625 1.625-3.625 3.625v15.687c0 2 1.625 3.625 3.625 3.625h28.75a4.054 4.054 0 0 0 4.063-4.063V6.375c.062-.438-.126-.813-.438-1.063Zm-33.188 30.5V20.124c0-.438.375-.813.813-.813h13.25v17.25H5.375c-.438.063-.813-.312-.813-.75ZM27 36.624v-3.75c0-.875.688-1.563 1.563-1.563s1.562.688 1.562 1.563v3.75H27Zm8.438-1.313c0 .688-.563 1.25-1.25 1.25h-1.25v-3.75a4.348 4.348 0 0 0-4.376-4.374 4.348 4.348 0 0 0-4.375 4.375v3.75h-2.75V7a10.792 10.792 0 0 1 14 0v28.313Z" fill="#E9AC06"/></svg>