<svg xmlns="http://www.w3.org/2000/svg" width="24" height="25" fill="none"><path fill="#111928" d="M11.964 7.81h-.037a.846.846 0 0 0-.836.835c0 .473.364.837.836.837h.037a.846.846 0 0 0 .836-.837.823.823 0 0 0-.837-.836M11.963 10.682a.846.846 0 0 0-.836.836v5.6c0 .436.364.836.836.836a.846.846 0 0 0 .837-.836v-5.636c0-.437-.364-.8-.837-.8"/><path fill="#111928" d="M11.964 1.518C5.89 1.518.944 6.428.944 12.5c0 6.073 4.946 11.018 11.019 11.018 6.072 0 10.981-4.945 10.981-11.018S18.036 1.518 11.964 1.518m0 20.364c-5.164 0-9.382-4.219-9.382-9.382 0-5.164 4.218-9.382 9.381-9.382S21.31 7.336 21.31 12.5s-4.182 9.382-9.346 9.382"/></svg>