<svg width="38" height="40" viewBox="0 0 38 40" fill="none" xmlns="http://www.w3.org/2000/svg">
<path d="M6.60967 25C6.60967 23.1617 8.09167 21.6667 9.91402 21.6667H20.6532C21.1091 21.6667 21.4792 22.04 21.4792 22.5C21.4792 22.96 21.1091 23.3333 20.6532 23.3333H9.91402C9.00367 23.3333 8.26185 24.0817 8.26185 25V28.3333C8.26185 29.2517 9.00367 30 9.91402 30H22.3053C22.7613 30 23.1314 30.3733 23.1314 30.8333C23.1314 31.2933 22.7613 31.6667 22.3053 31.6667H9.91402C8.09167 31.6667 6.60967 30.1717 6.60967 28.3333V25ZM7.43576 16.6667H14.0445C14.5005 16.6667 14.8705 16.2933 14.8705 15.8333C14.8705 15.3733 14.5005 15 14.0445 15H7.43576C6.97976 15 6.60967 15.3733 6.60967 15.8333C6.60967 16.2933 6.97976 16.6667 7.43576 16.6667ZM7.43576 10H14.0445C14.5005 10 14.8705 9.62667 14.8705 9.16667C14.8705 8.70667 14.5005 8.33333 14.0445 8.33333H7.43576C6.97976 8.33333 6.60967 8.70667 6.60967 9.16667C6.60967 9.62667 6.97976 10 7.43576 10ZM26.4358 39.1667C26.4358 39.6267 26.0657 40 25.6097 40H7.43576C3.33672 40 0.000976562 36.635 0.000976562 32.5V7.5C0.000976562 3.365 3.33672 0 7.43576 0H16.5475C19.414 0 22.112 1.12667 24.1425 3.17333L29.8987 8.98167C31.2601 10.355 32.2332 12.0767 32.7107 13.96C32.7735 14.21 32.719 14.475 32.562 14.6783C32.4051 14.8817 32.1655 15 31.9094 15H22.3053C20.027 15 18.1749 13.13 18.1749 10.8333V1.81167C17.6429 1.715 17.0993 1.66667 16.5475 1.66667H7.43576C4.24706 1.66667 1.65315 4.28333 1.65315 7.5V32.5C1.65315 35.7167 4.24706 38.3333 7.43576 38.3333H25.6097C26.0657 38.3333 26.4358 38.7067 26.4358 39.1667ZM19.8271 10.8333C19.8271 12.2117 20.939 13.3333 22.3053 13.3333H30.7793C30.325 12.1467 29.6278 11.065 28.7306 10.16L22.9745 4.35167C22.0625 3.43333 20.9935 2.735 19.8287 2.28V10.8333H19.8271ZM34.3497 27.9683L28.6959 27.0517C27.3858 26.84 26.4358 25.7133 26.4358 24.3767C26.4358 22.8833 27.6402 21.6667 29.1222 21.6667H33.7483C34.7776 21.6667 35.7375 22.225 36.2546 23.125C36.4843 23.525 36.9898 23.6583 37.3831 23.43C37.7779 23.2 37.9134 22.69 37.6854 22.2917C36.8758 20.8783 35.3691 20 33.7499 20H32.22V17.5C32.22 17.04 31.8499 16.6667 31.3939 16.6667C30.9379 16.6667 30.5678 17.04 30.5678 17.5V20H29.1238C26.7315 20 24.7852 21.9633 24.7852 24.3767C24.7852 26.5367 26.3218 28.355 28.4365 28.6983L34.0903 29.615C35.4005 29.8267 36.3505 30.9533 36.3505 32.29C36.3505 33.7833 35.146 35 33.664 35H29.0379C28.0086 35 27.0487 34.4417 26.5316 33.5417C26.3019 33.1417 25.7914 33.0067 25.4032 33.2367C25.0083 33.4667 24.8728 33.9767 25.1008 34.375C25.9104 35.7883 27.4171 36.6667 29.0363 36.6667H30.5662V39.1667C30.5662 39.6267 30.9363 40 31.3923 40C31.8483 40 32.2184 39.6267 32.2184 39.1667V36.6667H33.6624C36.0547 36.6667 38.001 34.7033 38.001 32.29C38.001 30.13 36.4645 28.3117 34.3497 27.9683Z" fill="#4C4C4C"/>
</svg>
