<svg width="40" height="40" viewBox="0 0 40 40" fill="none" xmlns="http://www.w3.org/2000/svg">
<path d="M9.16764 16.6755C4.02764 16.6755 0.000976562 18.8721 0.000976562 21.6755V35.0088C0.000976562 37.8121 4.02764 40.0088 9.16764 40.0088C14.3076 40.0088 18.3343 37.8121 18.3343 35.0088V21.6755C18.3343 18.8721 14.3076 16.6755 9.16764 16.6755ZM16.6676 28.3421C16.6676 29.9188 13.5876 31.6755 9.16764 31.6755C4.74764 31.6755 1.66764 29.9188 1.66764 28.3421V24.5855C3.31264 25.8588 6.03431 26.6755 9.16764 26.6755C12.301 26.6755 15.0226 25.8588 16.6676 24.5855V28.3421ZM9.16764 18.3421C13.5876 18.3421 16.6676 20.0988 16.6676 21.6755C16.6676 23.2521 13.5876 25.0088 9.16764 25.0088C4.74764 25.0088 1.66764 23.2521 1.66764 21.6755C1.66764 20.0988 4.74764 18.3421 9.16764 18.3421ZM9.16764 38.3421C4.74764 38.3421 1.66764 36.5855 1.66764 35.0088V31.2521C3.31264 32.5255 6.03431 33.3421 9.16764 33.3421C12.301 33.3421 15.0226 32.5255 16.6676 31.2521V35.0088C16.6676 36.5855 13.5876 38.3421 9.16764 38.3421ZM33.3343 9.17546C33.3343 7.79712 32.2126 6.67546 30.8343 6.67546H15.8343C14.456 6.67546 13.3343 7.79712 13.3343 9.17546V12.5088C13.3343 13.8871 14.456 15.0088 15.8343 15.0088H30.8343C32.2126 15.0088 33.3343 13.8871 33.3343 12.5088V9.17546ZM31.6676 12.5088C31.6676 12.9688 31.2926 13.3421 30.8343 13.3421H15.8343C15.376 13.3421 15.001 12.9688 15.001 12.5088V9.17546C15.001 8.71546 15.376 8.34212 15.8343 8.34212H30.8343C31.2926 8.34212 31.6676 8.71546 31.6676 9.17546V12.5088ZM33.3343 20.8421C33.3343 21.3021 32.961 21.6755 32.501 21.6755C32.041 21.6755 31.6676 21.3021 31.6676 20.8421V19.1755C31.6676 18.7155 32.041 18.3421 32.501 18.3421C32.961 18.3421 33.3343 18.7155 33.3343 19.1755V20.8421ZM26.6676 20.8421V19.1755C26.6676 18.7155 27.041 18.3421 27.501 18.3421C27.961 18.3421 28.3343 18.7155 28.3343 19.1755V20.8421C28.3343 21.3021 27.961 21.6755 27.501 21.6755C27.041 21.6755 26.6676 21.3021 26.6676 20.8421ZM21.6676 20.8421V19.1755C21.6676 18.7155 22.041 18.3421 22.501 18.3421C22.961 18.3421 23.3343 18.7155 23.3343 19.1755V20.8421C23.3343 21.3021 22.961 21.6755 22.501 21.6755C22.041 21.6755 21.6676 21.3021 21.6676 20.8421ZM21.6676 25.8421C21.6676 25.3821 22.041 25.0088 22.501 25.0088C22.961 25.0088 23.3343 25.3821 23.3343 25.8421V27.5088C23.3343 27.9688 22.961 28.3421 22.501 28.3421C22.041 28.3421 21.6676 27.9688 21.6676 27.5088V25.8421ZM26.6676 25.8421C26.6676 25.3821 27.041 25.0088 27.501 25.0088C27.961 25.0088 28.3343 25.3821 28.3343 25.8421V27.5088C28.3343 27.9688 27.961 28.3421 27.501 28.3421C27.041 28.3421 26.6676 27.9688 26.6676 27.5088V25.8421ZM33.3343 27.5088C33.3343 27.9688 32.961 28.3421 32.501 28.3421C32.041 28.3421 31.6676 27.9688 31.6676 27.5088V25.8421C31.6676 25.3821 32.041 25.0088 32.501 25.0088C32.961 25.0088 33.3343 25.3821 33.3343 25.8421V27.5088ZM21.6676 32.5088C21.6676 32.0488 22.041 31.6755 22.501 31.6755H32.501C32.961 31.6755 33.3343 32.0488 33.3343 32.5088C33.3343 32.9688 32.961 33.3421 32.501 33.3421H22.501C22.041 33.3421 21.6676 32.9688 21.6676 32.5088ZM40.001 7.50879V32.5088C40.001 36.6438 36.636 40.0088 32.501 40.0088H20.8343C20.3743 40.0088 20.001 39.6355 20.001 39.1755C20.001 38.7155 20.3743 38.3421 20.8343 38.3421H32.501C35.7176 38.3421 38.3343 35.7255 38.3343 32.5088V7.50879C38.3343 4.29212 35.7176 1.67546 32.501 1.67546H14.1676C10.951 1.67546 8.33431 4.29212 8.33431 7.50879V12.5088C8.33431 12.9688 7.96098 13.3421 7.50098 13.3421C7.04098 13.3421 6.66764 12.9688 6.66764 12.5088V7.50879C6.66764 3.37379 10.0326 0.00878906 14.1676 0.00878906H32.501C36.636 0.00878906 40.001 3.37379 40.001 7.50879Z" fill="#4C4C4C"/>
</svg>
