<svg width="40" height="40" viewBox="0 0 40 40" fill="none" xmlns="http://www.w3.org/2000/svg">
<path d="M24.1676 16.6711H15.8343C14.456 16.6711 13.3343 17.7927 13.3343 19.1711V27.5044C13.3343 28.8827 14.456 30.0044 15.8343 30.0044H24.1676C25.546 30.0044 26.6676 28.8827 26.6676 27.5044V19.1711C26.6676 17.7927 25.546 16.6711 24.1676 16.6711ZM25.001 27.5044C25.001 27.9627 24.6276 28.3377 24.1676 28.3377H15.8343C15.3743 28.3377 15.001 27.9627 15.001 27.5044V19.1711C15.001 18.7127 15.3743 18.3377 15.8343 18.3377H24.1676C24.6276 18.3377 25.001 18.7127 25.001 19.1711V27.5044ZM36.696 9.72274L35.001 8.5794V2.5044C35.001 2.0444 34.6276 1.67107 34.1676 1.67107C33.7076 1.67107 33.3343 2.0444 33.3343 2.5044V7.4544L24.196 1.2894C21.6493 -0.430596 18.356 -0.432262 15.806 1.2894L3.30598 9.72274C1.23598 11.1194 0.000976562 13.4427 0.000976562 15.9377V32.5027C0.000976562 36.6377 3.36598 40.0027 7.50098 40.0027H32.501C36.636 40.0027 40.001 36.6377 40.001 32.5027V15.9394C40.001 13.4444 38.766 11.1177 36.696 9.72274ZM38.3343 32.5044C38.3343 35.7211 35.7176 38.3377 32.501 38.3377H7.50098C4.28431 38.3377 1.66764 35.7211 1.66764 32.5044V15.9394C1.66764 13.9994 2.62931 12.1911 4.23764 11.1044L16.7376 2.6694C17.7293 2.00107 18.8643 1.66607 20.001 1.66607C21.1376 1.66607 22.2726 1.9994 23.2643 2.6694L35.7643 11.1044C37.3743 12.1911 38.3343 13.9994 38.3343 15.9394V32.5044Z" fill="#4C4C4C"/>
</svg>
