<svg xmlns="http://www.w3.org/2000/svg" width="24" height="24" fill="none"><g fill="#4C4C4C" clip-path="url(#a)"><path d="M15.825 8.119a.84.84 0 0 0-1.2 0l-2.662 2.662L9.3 8.12a.84.84 0 0 0-1.2 0 .84.84 0 0 0 0 1.2l2.663 2.662L8.1 14.644a.84.84 0 0 0 0 1.2c.15.15.375.262.6.262s.45-.075.6-.262l2.663-2.663 2.662 2.663c.15.15.375.262.6.262s.45-.075.6-.262a.84.84 0 0 0 0-1.2l-2.662-2.663 2.662-2.662c.338-.338.338-.9 0-1.2"/><path d="M20.963.656h-18A2.337 2.337 0 0 0 .638 2.981v18A2.377 2.377 0 0 0 3 23.344h18a2.377 2.377 0 0 0 2.363-2.363v-18c-.038-1.275-1.125-2.325-2.4-2.325m.675 20.325c0 .375-.3.675-.675.675h-18a.67.67 0 0 1-.675-.675v-18c.037-.375.3-.637.675-.637h18c.375 0 .675.3.675.675z"/></g><defs><clipPath id="a"><path fill="#fff" d="M0 0h24v24H0z"/></clipPath></defs></svg>