<svg width="40" height="41" fill="none" xmlns="http://www.w3.org/2000/svg"><path d="M13.063 18.75c3.874 0 7.062-3.063 7.062-6.875C20.125 8.062 16.937 5 13.062 5 9.188 5 6 8.063 6 11.875c0 3.813 3.188 6.875 7.063 6.875Zm0-10.875c2.312 0 4.25 1.813 4.25 4.063S15.438 16 13.063 16c-2.376 0-4.25-1.813-4.25-4.063s1.937-4.062 4.25-4.062ZM28.75 21.75c3.375 0 6.063-2.625 6.063-5.938 0-3.312-2.75-5.937-6.063-5.937-3.313 0-6.063 2.625-6.063 5.938 0 3.312 2.75 5.937 6.063 5.937Zm0-9c1.813 0 3.25 1.375 3.25 3.125S30.562 19 28.75 19c-1.813 0-3.25-1.375-3.25-3.125s1.438-3.125 3.25-3.125Z" fill="#E9AC06"/><path d="M29.063 22.375H28.5c-1.875 0-3.688.563-5.25 1.5-1.688-2.25-4.375-3.75-7.375-3.75h-5.563c-5.124.063-9.187 4.125-9.187 9.188v4.5c0 1.187.938 2.124 2.125 2.124h33.563c1.187 0 2.187-1 2.187-2.187v-1.5c-.063-5.438-4.5-9.875-9.938-9.875ZM3.938 33.125v-3.813c0-3.5 2.874-6.375 6.374-6.375h5.563c3.5 0 6.375 2.875 6.375 6.375v3.813H3.937Zm32.187 0H25v-3.813c0-1-.188-2-.5-2.937 1.125-.813 2.5-1.188 3.938-1.188H29c3.875 0 7.063 3.188 7.063 7.063v.875h.062Z" fill="#E9AC06"/></svg>